<svg width="207" height="208" viewBox="0 0 207 208" fill="none" xmlns="http://www.w3.org/2000/svg">
<g clip-path="url(#clip0_7_152)">
<path d="M138.5 108.5C138.5 109.826 137.973 111.098 137.036 112.036C136.098 112.973 134.826 113.5 133.5 113.5H73.5C72.1741 113.499 70.9026 112.973 69.965 112.035C69.0275 111.097 68.5005 109.826 68.5 108.5V78.5C68.5 77.1739 69.0268 75.9021 69.9645 74.9645C70.9021 74.0268 72.1739 73.5 73.5 73.5H79.36C83.3362 73.4978 87.1488 71.917 89.96 69.105L94.11 64.965C95.045 64.0297 96.3125 63.5029 97.635 63.5H109.355C110.681 63.5003 111.953 64.0272 112.89 64.965L117.03 69.105C118.423 70.4988 120.077 71.6044 121.898 72.3586C123.718 73.1127 125.669 73.5006 127.64 73.5H133.5C134.826 73.5005 136.097 74.0275 137.035 74.965C137.973 75.9026 138.499 77.1741 138.5 78.5V108.5ZM73.5 68.5C70.8478 68.5 68.3043 69.5536 66.4289 71.4289C64.5536 73.3043 63.5 75.8478 63.5 78.5V108.5C63.5 111.152 64.5536 113.696 66.4289 115.571C68.3043 117.446 70.8478 118.5 73.5 118.5H133.5C136.152 118.5 138.695 117.446 140.571 115.571C142.446 113.695 143.5 111.152 143.5 108.5V78.5C143.499 75.848 142.446 73.3048 140.57 71.4295C138.695 69.5543 136.152 68.5005 133.5 68.5H127.64C124.988 68.4994 122.445 67.4455 120.57 65.57L116.43 61.43C114.555 59.5545 112.012 58.5006 109.36 58.5H97.64C94.9881 58.5006 92.4449 59.5545 90.57 61.43L86.43 65.57C84.5551 67.4455 82.0119 68.4994 79.36 68.5H73.5Z" fill="#A3A3A3"/>
<path d="M103.5 103.5C101.858 103.5 100.233 103.177 98.7164 102.548C97.1999 101.92 95.8219 101 94.6611 99.8388C93.5004 98.6781 92.5797 97.3001 91.9515 95.7835C91.3233 94.267 91 92.6415 91 91C91 89.3585 91.3233 87.733 91.9515 86.2165C92.5797 84.6999 93.5004 83.3219 94.6611 82.1612C95.8219 81.0004 97.1999 80.0797 98.7164 79.4515C100.233 78.8233 101.858 78.5 103.5 78.5C106.815 78.5 109.995 79.817 112.339 82.1612C114.683 84.5054 116 87.6848 116 91C116 94.3152 114.683 97.4946 112.339 99.8388C109.995 102.183 106.815 103.5 103.5 103.5ZM103.5 108.5C108.141 108.5 112.592 106.656 115.874 103.374C119.156 100.092 121 95.6408 120.999 90.9995C120.999 86.3582 119.155 81.9071 115.873 78.6253C112.592 75.3435 108.14 73.4999 103.499 73.5C98.8577 73.5001 94.4065 75.344 91.1248 78.626C87.843 81.908 85.9993 86.3592 85.9995 91.0005C85.9996 95.6418 87.8435 100.093 91.1255 103.375C94.4074 106.657 98.8587 108.5 103.5 108.5ZM78.5 81C78.5 81.663 78.2366 82.2989 77.7677 82.7678C77.2989 83.2366 76.663 83.5 76 83.5C75.3369 83.5 74.701 83.2366 74.2322 82.7678C73.7634 82.2989 73.5 81.663 73.5 81C73.5 80.337 73.7634 79.7011 74.2322 79.2322C74.701 78.7634 75.3369 78.5 76 78.5C76.663 78.5 77.2989 78.7634 77.7677 79.2322C78.2366 79.7011 78.5 80.337 78.5 81ZM34.7 142.698H35.692C36.542 141.146 37.254 139.402 37.828 137.469C38.395 135.572 38.766 133.622 38.935 131.65H45.571V142.698H47.232V148.042H45.211V144.5H36.721V148.042H34.699L34.7 142.698ZM40.693 133.47C40.565 134.8 40.236 136.344 39.709 138.102C39.182 139.854 38.581 141.386 37.907 142.698H43.471V133.47H40.693ZM57.718 139.622C57.718 141.21 57.31 142.449 56.496 143.34C55.682 144.23 54.548 144.676 53.095 144.676C52.187 144.676 51.384 144.471 50.687 144.061C49.989 143.65 49.453 143.062 49.078 142.294C48.703 141.526 48.516 140.636 48.516 139.622C48.516 138.046 48.92 136.815 49.728 135.931C50.538 135.046 51.677 134.604 53.148 134.604C54.554 134.604 55.667 135.058 56.488 135.966C57.308 136.868 57.718 138.087 57.718 139.622ZM50.643 139.622C50.643 141.866 51.472 142.988 53.13 142.988C54.77 142.988 55.59 141.866 55.59 139.622C55.59 137.401 54.765 136.291 53.112 136.291C52.245 136.291 51.615 136.578 51.222 137.152C50.836 137.727 50.642 138.55 50.642 139.622H50.643ZM59.537 138.664C59.537 136.496 59.903 134.829 60.636 133.663C61.374 132.497 62.546 131.747 64.151 131.413C65.5422 131.136 66.9403 130.896 68.344 130.692L68.634 132.512C66.712 132.805 65.306 133.033 64.415 133.197C63.495 133.367 62.83 133.745 62.42 134.331C62.016 134.917 61.781 135.799 61.717 136.977H61.849C62.1791 136.493 62.631 136.105 63.159 135.852C63.6957 135.583 64.2885 135.444 64.889 135.447C66.085 135.447 67.017 135.825 67.685 136.581C68.353 137.337 68.686 138.397 68.686 139.763C68.686 141.327 68.279 142.537 67.465 143.393C66.656 144.248 65.535 144.676 64.099 144.676C62.675 144.676 61.559 144.148 60.75 143.094C59.941 142.039 59.537 140.562 59.537 138.664ZM64.239 142.988C65.774 142.988 66.542 141.98 66.542 139.965C66.542 138.02 65.848 137.047 64.459 137.047C64.079 137.047 63.709 137.129 63.352 137.293C62.9905 137.46 62.6555 137.679 62.358 137.943C62.06 138.213 61.828 138.491 61.664 138.778C61.664 140.161 61.884 141.21 62.324 141.925C62.763 142.634 63.401 142.988 64.239 142.988ZM77.15 144.5L76.737 143.146H76.667C76.198 143.738 75.727 144.143 75.252 144.359C74.777 144.57 74.168 144.676 73.424 144.676C72.469 144.676 71.722 144.418 71.183 143.902C70.649 143.387 70.383 142.657 70.383 141.714C70.383 140.712 70.755 139.956 71.499 139.446C72.243 138.937 73.377 138.658 74.9 138.611L76.58 138.559V138.04C76.58 137.419 76.433 136.956 76.14 136.651C75.853 136.341 75.404 136.186 74.795 136.186C74.297 136.186 73.819 136.259 73.362 136.405C72.905 136.552 72.466 136.725 72.044 136.924L71.376 135.447C71.9234 135.165 72.5053 134.955 73.107 134.823C73.6887 134.682 74.2846 134.609 74.883 134.604C76.119 134.604 77.051 134.873 77.678 135.412C78.311 135.951 78.627 136.798 78.627 137.952V144.5H77.15ZM74.074 143.094C74.824 143.094 75.424 142.886 75.876 142.47C76.333 142.048 76.561 141.459 76.561 140.703V139.859L75.313 139.912C74.341 139.947 73.632 140.111 73.186 140.404C72.747 140.691 72.527 141.134 72.527 141.731C72.527 142.165 72.657 142.502 72.914 142.742C73.172 142.977 73.559 143.094 74.074 143.094ZM89.947 137.267C89.947 138.415 89.277 139.109 87.935 139.35V139.42C88.685 139.508 89.259 139.745 89.657 140.132C90.056 140.519 90.255 141.02 90.255 141.635C90.255 142.555 89.903 143.264 89.2 143.762C88.503 144.254 87.486 144.5 86.15 144.5H81.51V134.779H86.133C88.676 134.779 89.947 135.608 89.947 137.267ZM88.137 141.512C88.137 141.043 87.955 140.712 87.592 140.519C87.228 140.319 86.684 140.22 85.957 140.22H83.575V142.971H86.01C87.428 142.971 88.137 142.484 88.137 141.512ZM87.882 137.442C87.882 137.056 87.729 136.777 87.425 136.607C87.126 136.432 86.678 136.344 86.08 136.344H83.575V138.682H85.772C86.464 138.682 86.988 138.594 87.346 138.418C87.703 138.236 87.882 137.911 87.882 137.442ZM94.368 134.779V139.763C94.368 140.343 94.321 141.195 94.228 142.32L99.106 134.779H101.628V144.5H99.642V139.604C99.642 139.335 99.656 138.898 99.686 138.295C99.721 137.691 99.75 137.252 99.773 136.977L94.913 144.5H92.391V134.779H94.368ZM111.876 134.779V136.396H108.712V144.5H106.638V136.396H103.474V134.779H111.876ZM115.813 138.664H118.248C120.961 138.664 122.317 139.602 122.317 141.477C122.317 142.467 121.972 143.22 121.28 143.735C120.589 144.245 119.578 144.5 118.248 144.5H113.748V134.779H115.813V138.664ZM120.243 141.529C120.243 141.043 120.059 140.703 119.689 140.51C119.32 140.316 118.799 140.22 118.125 140.22H115.813V142.971H118.16C118.84 142.971 119.355 142.848 119.707 142.602C120.064 142.355 120.243 141.998 120.243 141.529ZM140.66 139.64C140.66 141.099 140.218 142.262 139.333 143.129C138.454 143.996 137.235 144.488 135.677 144.605V148.824H133.717V144.605C132.176 144.488 130.954 143.99 130.052 143.111C129.155 142.227 128.707 141.069 128.707 139.64C128.707 138.157 129.144 136.988 130.017 136.133C130.89 135.271 132.129 134.785 133.734 134.674V130.824H135.677V134.674C137.235 134.814 138.454 135.321 139.333 136.194C140.218 137.067 140.66 138.216 140.66 139.64ZM130.852 139.64C130.852 140.601 131.092 141.374 131.572 141.96C132.053 142.546 132.773 142.889 133.734 142.988V136.291C132.768 136.402 132.044 136.748 131.563 137.328C131.089 137.908 130.852 138.679 130.852 139.64ZM138.524 139.64C138.524 138.69 138.284 137.929 137.804 137.354C137.329 136.78 136.62 136.438 135.677 136.326V142.988C136.632 142.877 137.344 142.531 137.812 141.951C138.287 141.365 138.524 140.595 138.524 139.64ZM151.673 139.622C151.673 141.21 151.266 142.449 150.451 143.34C149.637 144.23 148.503 144.676 147.05 144.676C146.142 144.676 145.339 144.471 144.642 144.061C143.944 143.65 143.408 143.062 143.033 142.294C142.658 141.526 142.471 140.636 142.471 139.622C142.471 138.046 142.875 136.815 143.684 135.931C144.492 135.046 145.632 134.604 147.103 134.604C148.509 134.604 149.622 135.058 150.442 135.966C151.263 136.868 151.673 138.087 151.673 139.622ZM144.598 139.622C144.598 141.866 145.427 142.988 147.085 142.988C148.726 142.988 149.546 141.866 149.546 139.622C149.546 137.401 148.72 136.291 147.067 136.291C146.2 136.291 145.57 136.578 145.178 137.152C144.791 137.727 144.598 138.55 144.598 139.622ZM161.183 134.779V136.396H158.019V144.5H155.944V136.396H152.78V134.779H161.183ZM171.501 139.622C171.501 141.21 171.094 142.449 170.279 143.34C169.465 144.23 168.331 144.676 166.878 144.676C165.97 144.676 165.167 144.471 164.47 144.061C163.772 143.65 163.236 143.062 162.861 142.294C162.486 141.526 162.299 140.636 162.299 139.622C162.299 138.046 162.703 136.815 163.512 135.931C164.32 135.046 165.46 134.604 166.931 134.604C168.337 134.604 169.45 135.058 170.271 135.966C171.091 136.868 171.501 138.087 171.501 139.622ZM164.426 139.622C164.426 141.866 165.255 142.988 166.913 142.988C168.554 142.988 169.374 141.866 169.374 139.622C169.374 137.401 168.548 136.291 166.896 136.291C166.028 136.291 165.398 136.578 165.006 137.152C164.619 137.727 164.426 138.55 164.426 139.622Z" fill="#A3A3A3"/>
<path d="M203 2.5H4C2.89543 2.5 2 3.39543 2 4.5V203.5C2 204.605 2.89543 205.5 4 205.5H203C204.105 205.5 205 204.605 205 203.5V4.5C205 3.39543 204.105 2.5 203 2.5Z" stroke="#A3A3A3" stroke-width="4" stroke-linecap="square" stroke-linejoin="round" stroke-dasharray="12 12"/>
</g>
<defs>
<clipPath id="clip0_7_152">
<rect width="207" height="208" fill="white"/>
</clipPath>
</defs>
</svg>
