<svg width="28" height="24" viewBox="0 0 28 24" fill="none" xmlns="http://www.w3.org/2000/svg">
<path opacity="0.5" fill-rule="evenodd" clip-rule="evenodd" d="M5 6.75C5 6.33579 5.33579 6 5.75 6H22.75C23.1642 6 23.5 6.33579 23.5 6.75C23.5 7.16421 23.1642 7.5 22.75 7.5H5.75C5.33579 7.5 5 7.16421 5 6.75ZM5 11.75C5 11.3358 5.33579 11 5.75 11H12.75C13.1642 11 13.5 11.3358 13.5 11.75C13.5 12.1642 13.1642 12.5 12.75 12.5H5.75C5.33579 12.5 5 12.1642 5 11.75ZM5 16.75C5 16.3358 5.33579 16 5.75 16H12.75C13.1642 16 13.5 16.3358 13.5 16.75C13.5 17.1642 13.1642 17.5 12.75 17.5H5.75C5.33579 17.5 5 17.1642 5 16.75Z" fill="#26DA72"/>
<path d="M23.2113 11.1587C23.5379 11.4134 23.5961 11.8847 23.3414 12.2113L19.4414 17.2113C19.3022 17.3898 19.0899 17.4958 18.8636 17.4999C18.6373 17.504 18.4213 17.4057 18.2757 17.2324L16.1757 14.7324C15.9093 14.4153 15.9505 13.9422 16.2676 13.6758C16.5848 13.4093 17.0579 13.4505 17.3243 13.7676L18.8284 15.5583L22.1586 11.2888C22.4134 10.9622 22.8847 10.9039 23.2113 11.1587Z" fill="#26DA72"/>
</svg>
