<svg width="16" height="16" viewBox="0 0 16 16" fill="none" xmlns="http://www.w3.org/2000/svg">
<path d="M13.807 4.69301C13.8688 4.63133 13.9178 4.55807 13.9513 4.47743C13.9847 4.39678 14.002 4.31032 14.002 4.22301C14.002 4.1357 13.9847 4.04924 13.9513 3.96859C13.9178 3.88794 13.8688 3.81469 13.807 3.75301L12.247 2.19301C12.1853 2.13121 12.1121 2.08218 12.0314 2.04872C11.9508 2.01527 11.8643 1.99805 11.777 1.99805C11.6897 1.99805 11.6032 2.01527 11.5226 2.04872C11.4419 2.08218 11.3687 2.13121 11.307 2.19301L10.08 3.41301L12.58 5.91301L13.807 4.69301ZM2 11.5V14H4.5L11.873 6.62001L9.373 4.12001L2 11.5Z" fill="black"/>
</svg>
