<svg width="90" height="90" viewBox="0 0 90 90" fill="none" xmlns="http://www.w3.org/2000/svg">
<g clip-path="url(#clip0_7_27)">
<path d="M41.7553 56.6761C41.9104 58.1758 43.1765 59.2922 44.6518 59.2922C44.752 59.2922 44.8531 59.2872 44.955 59.2767C46.5565 59.1111 47.7208 57.6786 47.5552 56.0771L46.2106 43.067C46.045 41.4655 44.6117 40.3028 43.0109 40.4668C41.4094 40.6324 40.2451 42.0649 40.4107 43.6665L41.7553 56.6761Z" fill="black"/>
<path d="M60.0008 59.2767C60.1027 59.2872 60.2037 59.2923 60.304 59.2923C61.7796 59.2923 63.0454 58.1758 63.2005 56.6761L64.5447 43.6661C64.7103 42.0641 63.546 40.6317 61.9445 40.4664C60.3417 40.3028 58.91 41.4655 58.7444 43.0667L57.4002 56.0767C57.2346 57.6786 58.3989 59.1111 60.0008 59.2767Z" fill="black"/>
<path d="M37.426 71.9493C32.4498 71.9493 28.4016 75.9975 28.4016 80.9737C28.4016 85.951 32.4498 90.0004 37.426 90.0004C42.4021 90.0004 46.4507 85.951 46.4507 80.9737C46.4507 75.9975 42.4021 71.9493 37.426 71.9493ZM37.426 84.169C35.665 84.169 34.2326 82.7354 34.2326 80.9733C34.2326 79.2123 35.665 77.7799 37.426 77.7799C39.1869 77.7799 40.6198 79.2123 40.6198 80.9733C40.6198 82.7354 39.1869 84.169 37.426 84.169Z" fill="black"/>
<path d="M67.5296 71.9493C62.5535 71.9493 58.5049 75.9975 58.5049 80.9737C58.5049 85.951 62.5531 90.0004 67.5296 90.0004C72.5062 90.0004 76.5552 85.951 76.5552 80.9737C76.5552 75.9975 72.5062 71.9493 67.5296 71.9493ZM67.5296 84.169C65.7687 84.169 64.3358 82.7354 64.3358 80.9733C64.3358 79.2123 65.7687 77.7799 67.5296 77.7799C69.291 77.7799 70.7242 79.2123 70.7242 80.9733C70.7242 82.7354 69.2914 84.169 67.5296 84.169Z" fill="black"/>
<path d="M84.9686 30.7408C84.4166 30.0267 83.5649 29.6084 82.6623 29.6084H24.549L22.1086 20.2241C21.7743 18.9393 20.6143 18.0425 19.2868 18.0425H7.3376C5.72747 18.0425 4.42212 19.3479 4.42212 20.958C4.42212 22.5681 5.72747 23.8735 7.3376 23.8735H17.0325L19.4532 33.182C19.4652 33.2341 19.4788 33.2858 19.4936 33.3367L28.4954 67.9516C28.8297 69.2364 29.9897 70.1332 31.3172 70.1332H73.6398C74.9673 70.1332 76.1273 69.2364 76.4616 67.9516L85.484 33.2574C85.7111 32.3847 85.5206 31.4553 84.9686 30.7408ZM71.3856 64.303H33.5714L26.0655 35.4398H78.892L71.3856 64.303Z" fill="black"/>
<path d="M41.0328 20.5448C41.6019 21.1135 42.3479 21.398 43.0939 21.398C43.8402 21.398 44.5866 21.1131 45.1561 20.5436C46.2943 19.4046 46.2939 17.5585 45.1549 16.4203L35.9859 7.25563C34.847 6.11743 33.0013 6.11782 31.8627 7.25641C30.7245 8.39539 30.7249 10.2415 31.8635 11.3797L41.0328 20.5448Z" fill="black"/>
<path d="M61.8756 21.3976C62.622 21.3976 63.3687 21.1127 63.9382 20.5428L73.0936 11.3793C74.2318 10.2403 74.2306 8.39423 73.0917 7.25641C71.9527 6.11821 70.1066 6.11938 68.9688 7.25836L59.8134 16.4219C58.6752 17.5609 58.6764 19.407 59.8154 20.5452C60.3845 21.1135 61.13 21.3976 61.8756 21.3976Z" fill="black"/>
<path d="M52.4809 18.7799H52.4816C54.0914 18.7799 55.3967 17.475 55.3971 15.8652L55.4002 2.91625C55.4006 1.30613 54.0956 0.00038873 52.4855 0H52.4851C50.875 0 49.5697 1.30497 49.5693 2.9147L49.5662 15.8637C49.5658 17.4738 50.8707 18.7796 52.4809 18.7799Z" fill="black"/>
</g>
<defs>
<clipPath id="clip0_7_27">
<rect width="90" height="90" fill="white"/>
</clipPath>
</defs>
</svg>
