<svg width="15" height="4" viewBox="0 0 15 4" fill="none" xmlns="http://www.w3.org/2000/svg">
<g clip-path="url(#clip0_9_187)">
<path fill-rule="evenodd" clip-rule="evenodd" d="M13.5 3.5C12.6716 3.5 12 2.82843 12 2C12 1.17157 12.6716 0.500001 13.5 0.500001C14.3284 0.500001 15 1.17157 15 2C15 2.82843 14.3284 3.5 13.5 3.5ZM7.5 3.5C6.67157 3.5 6 2.82843 6 2C6 1.17157 6.67157 0.500001 7.5 0.500001C8.32843 0.500001 9 1.17157 9 2C9 2.82843 8.32843 3.5 7.5 3.5ZM0 2C-3.62119e-08 2.82843 0.671573 3.5 1.5 3.5C2.32843 3.5 3 2.82843 3 2C3 1.17157 2.32843 0.5 1.5 0.5C0.671573 0.5 3.62117e-08 1.17157 0 2Z" fill="black"/>
</g>
<defs>
<clipPath id="clip0_9_187">
<rect width="15" height="4" fill="white"/>
</clipPath>
</defs>
</svg>
